<svg viewBox="0 0 31 31" xmlns="http://www.w3.org/2000/svg">
<path d="M20.3972 29.7896L20.5821 29.9579L20.3972 29.7896C20.3012 29.895 20.1085 30.014 19.7479 30.1386C19.3929 30.2614 18.9038 30.3804 18.2455 30.504C16.1725 30.8934 13.7667 30.8176 11.6931 30.297C8.89268 29.5938 5.98476 27.8775 4.23517 25.9035C1.0711 22.3336 -0.280436 17.8058 0.438697 13.2009C1.01253 9.52676 3.01969 6.04409 5.91571 3.69812C8.36365 1.71523 11.4285 0.510124 14.558 0.299601C15.5322 0.234101 15.5565 0.234081 16.5121 0.295933C18.7138 0.438525 20.567 0.939294 22.5166 1.91789C26.8503 4.09325 29.8474 8.26104 30.6155 13.191C30.7453 14.0241 30.7936 16.0204 30.7048 16.8991C30.4624 19.2953 29.6139 21.7675 28.4109 23.598C28.2343 23.8665 28.0856 24.0392 27.9364 24.1557C27.7916 24.2689 27.6354 24.3376 27.43 24.3802C26.9074 24.4887 26.3168 24.2041 26.0409 23.682C25.9701 23.5478 25.9387 23.4194 25.9374 23.1221C25.9365 22.914 25.9414 22.84 25.9689 22.7569C26.0004 22.6615 26.0642 22.5467 26.2238 22.2777L26.0089 22.1502L26.2239 22.2777C27.704 19.7832 28.3616 17.1819 28.1607 14.5735C27.9103 11.3221 26.5849 8.48286 24.2781 6.26254L24.1048 6.44266L24.2781 6.26254C22.3119 4.37015 19.9928 3.22758 17.2649 2.80606C16.3074 2.65807 14.5854 2.65875 13.5992 2.80687L13.5991 2.80687C10.7642 3.23274 8.2375 4.53539 6.25256 6.59475L6.43256 6.76825L6.25256 6.59476C3.90533 9.03004 2.68638 12.051 2.68638 15.433C2.68638 16.7022 2.80693 17.6369 3.11947 18.7788C4.39183 23.4273 8.18872 26.9808 12.8971 27.9278C14.8472 28.3201 16.6838 28.2684 18.6779 27.7669L18.6169 27.5244L18.6779 27.7669C19.1966 27.6364 19.5298 27.6028 19.7816 27.6484C20.018 27.6913 20.2089 27.8093 20.4308 28.0548C20.8554 28.5244 20.8495 29.2928 20.3972 29.7896ZM14.2645 7.50895L14.2645 7.50894C14.4064 7.19563 14.5871 7.01209 14.8993 6.86458C15.5345 6.56453 16.2826 6.83547 16.5818 7.47757L16.7017 7.73482L16.7009 12.8484C16.7006 15.3851 16.6998 16.6747 16.684 17.3645C16.6686 18.0351 16.6381 18.1016 16.6026 18.179C16.6013 18.182 16.5999 18.1849 16.5985 18.188L16.5985 18.188C16.2964 18.8549 15.5406 19.1353 14.8993 18.8324C14.5871 18.6849 14.4064 18.5013 14.2645 18.188L14.0368 18.2911L14.2645 18.188C14.2631 18.1849 14.2617 18.1819 14.2604 18.179C14.2249 18.1016 14.1944 18.0351 14.1791 17.3648C14.1634 16.6751 14.1628 15.3855 14.1628 12.8485C14.1628 10.3114 14.1634 9.02183 14.1791 8.33216C14.1944 7.6619 14.2249 7.59535 14.2604 7.51799C14.2617 7.51501 14.2631 7.51201 14.2645 7.50895ZM14.1628 22.852C14.1628 22.3444 14.4297 21.9246 14.8993 21.7027C15.7332 21.3088 16.703 21.9253 16.7009 22.8515C16.6994 23.5584 16.1358 24.1211 15.4315 24.1211C14.7266 24.1211 14.1628 23.5573 14.1628 22.852Z" fill="#1EAE8D" stroke="white" stroke-width="0.5"/>
</svg>
