<svg width="22" height="20" viewBox="0 0 22 20" fill="none" xmlns="http://www.w3.org/2000/svg">
<g clip-path="url(#clip0_2_100)">
<path d="M20.477 0.0212402L12.0766 6.26004L13.6304 2.57911L20.477 0.0212402Z" fill="#E2761B" stroke="#E2761B" stroke-width="0.0424755" stroke-linecap="round" stroke-linejoin="round"/>
<path d="M1.08482 0.0212402L9.41766 6.31908L7.93994 2.57911L1.08482 0.0212402Z" fill="#E4761B" stroke="#E4761B" stroke-width="0.0424755" stroke-linecap="round" stroke-linejoin="round"/>
<path d="M17.4544 14.4829L15.2173 17.9106L20.0042 19.2274L21.3804 14.5589L17.4544 14.4829Z" fill="#E4761B" stroke="#E4761B" stroke-width="0.0424755" stroke-linecap="round" stroke-linejoin="round"/>
<path d="M0.198364 14.5589L1.56607 19.2274L6.35306 17.9106L4.11588 14.4829L0.198364 14.5589Z" fill="#E4761B" stroke="#E4761B" stroke-width="0.0424755" stroke-linecap="round" stroke-linejoin="round"/>
<path d="M6.08292 8.69133L4.74876 10.7093L9.50177 10.9204L9.33314 5.81277L6.08292 8.69133Z" fill="#E4761B" stroke="#E4761B" stroke-width="0.0424755" stroke-linecap="round" stroke-linejoin="round"/>
<path d="M15.4789 8.69133L12.1866 5.75373L12.0766 10.9204L16.8216 10.7093L15.4789 8.69133Z" fill="#E4761B" stroke="#E4761B" stroke-width="0.0424755" stroke-linecap="round" stroke-linejoin="round"/>
<path d="M6.35306 17.9106L9.20656 16.5174L6.74128 14.5925L6.35306 17.9106Z" fill="#E4761B" stroke="#E4761B" stroke-width="0.0424755" stroke-linecap="round" stroke-linejoin="round"/>
<path d="M12.3553 16.5174L15.2173 17.9106L14.8205 14.5925L12.3553 16.5174Z" fill="#E4761B" stroke="#E4761B" stroke-width="0.0424755" stroke-linecap="round" stroke-linejoin="round"/>
<path d="M15.2173 17.9106L12.3553 16.5174L12.5834 18.3834L12.5579 19.1683L15.2173 17.9106Z" fill="#D7C1B3" stroke="#D7C1B3" stroke-width="0.0424755" stroke-linecap="round" stroke-linejoin="round"/>
<path d="M6.35306 17.9106L9.01245 19.1683L8.99546 18.3834L9.20656 16.5174L6.35306 17.9106Z" fill="#D7C1B3" stroke="#D7C1B3" stroke-width="0.0424755" stroke-linecap="round" stroke-linejoin="round"/>
<path d="M9.0545 13.3602L6.67375 12.6594L8.35366 11.891L9.0545 13.3602Z" fill="#233447" stroke="#233447" stroke-width="0.0424755" stroke-linecap="round" stroke-linejoin="round"/>
<path d="M12.5073 13.3602L13.2082 11.891L14.8966 12.6594L12.5073 13.3602Z" fill="#233447" stroke="#233447" stroke-width="0.0424755" stroke-linecap="round" stroke-linejoin="round"/>
<path d="M6.35306 17.9106L6.75827 14.4829L4.11588 14.5589L6.35306 17.9106Z" fill="#CD6116" stroke="#CD6116" stroke-width="0.0424755" stroke-linecap="round" stroke-linejoin="round"/>
<path d="M14.8121 14.4829L15.2173 17.9106L17.4545 14.5589L14.8121 14.4829Z" fill="#CD6116" stroke="#CD6116" stroke-width="0.0424755" stroke-linecap="round" stroke-linejoin="round"/>
<path d="M16.8216 10.7093L12.0766 10.9204L12.5158 13.3602L13.2167 11.891L14.9051 12.6594L16.8216 10.7093Z" fill="#CD6116" stroke="#CD6116" stroke-width="0.0424755" stroke-linecap="round" stroke-linejoin="round"/>
<path d="M6.67375 12.6594L8.36215 11.891L9.0545 13.3602L9.50177 10.9204L4.74876 10.7093L6.67375 12.6594Z" fill="#CD6116" stroke="#CD6116" stroke-width="0.0424755" stroke-linecap="round" stroke-linejoin="round"/>
<path d="M4.74876 10.7093L6.74129 14.5924L6.67375 12.6594L4.74876 10.7093Z" fill="#E4751F" stroke="#E4751F" stroke-width="0.0424755" stroke-linecap="round" stroke-linejoin="round"/>
<path d="M14.9051 12.6594L14.8205 14.5924L16.8215 10.7093L14.9051 12.6594Z" fill="#E4751F" stroke="#E4751F" stroke-width="0.0424755" stroke-linecap="round" stroke-linejoin="round"/>
<path d="M9.50176 10.9204L9.05449 13.3602L9.61177 16.2388L9.73834 12.4483L9.50176 10.9204Z" fill="#E4751F" stroke="#E4751F" stroke-width="0.0424755" stroke-linecap="round" stroke-linejoin="round"/>
<path d="M12.0766 10.9204L11.849 12.4398L11.9501 16.2388L12.5158 13.3602L12.0766 10.9204Z" fill="#E4751F" stroke="#E4751F" stroke-width="0.0424755" stroke-linecap="round" stroke-linejoin="round"/>
<path d="M12.5158 13.3602L11.9501 16.2388L12.3553 16.5174L14.8206 14.5924L14.9051 12.6594L12.5158 13.3602Z" fill="#F6851B" stroke="#F6851B" stroke-width="0.0424755" stroke-linecap="round" stroke-linejoin="round"/>
<path d="M6.67375 12.6594L6.74129 14.5924L9.20656 16.5174L9.61178 16.2388L9.0545 13.3602L6.67375 12.6594Z" fill="#F6851B" stroke="#F6851B" stroke-width="0.0424755" stroke-linecap="round" stroke-linejoin="round"/>
<path d="M12.5579 19.1683L12.5834 18.3834L12.3723 18.1973H9.18957L8.99546 18.3834L9.01245 19.1683L6.35306 17.9106L7.28157 18.6701L9.16408 19.9788H12.3977L14.2888 18.6701L15.2173 17.9106L12.5579 19.1683Z" fill="#C0AD9E" stroke="#C0AD9E" stroke-width="0.0424755" stroke-linecap="round" stroke-linejoin="round"/>
<path d="M12.3553 16.5174L11.95 16.2388H9.61177L9.20656 16.5174L8.99545 18.3834L9.18957 18.1973H12.3723L12.5834 18.3834L12.3553 16.5174Z" fill="#161616" stroke="#161616" stroke-width="0.0424755" stroke-linecap="round" stroke-linejoin="round"/>
<path d="M20.8317 6.66525L21.5491 3.22092L20.477 0.0212402L12.3553 6.04893L15.4789 8.69133L19.8942 9.98301L20.8737 8.8434L20.4515 8.5397L21.1269 7.92338L20.6036 7.51816L21.2789 7.00293L20.8317 6.66525Z" fill="#763D16" stroke="#763D16" stroke-width="0.0424755" stroke-linecap="round" stroke-linejoin="round"/>
<path d="M0.0212402 3.22092L0.738651 6.66525L0.282889 7.00293L0.958249 7.51816L0.443446 7.92338L1.11881 8.5397L0.6966 8.8434L1.66759 9.98301L6.08291 8.69133L9.20656 6.04893L1.08483 0.0212402L0.0212402 3.22092Z" fill="#763D16" stroke="#763D16" stroke-width="0.0424755" stroke-linecap="round" stroke-linejoin="round"/>
<path d="M19.8942 9.98301L15.4789 8.69133L16.8215 10.7093L14.8205 14.5924L17.4544 14.5589H21.3804L19.8942 9.98301Z" fill="#F6851B" stroke="#F6851B" stroke-width="0.0424755" stroke-linecap="round" stroke-linejoin="round"/>
<path d="M6.08292 8.69133L1.66759 9.98301L0.198364 14.5589H4.11588L6.74129 14.5924L4.74876 10.7093L6.08292 8.69133Z" fill="#F6851B" stroke="#F6851B" stroke-width="0.0424755" stroke-linecap="round" stroke-linejoin="round"/>
<path d="M12.0766 10.9204L12.3553 6.04893L13.6389 2.57911H7.93994L9.20656 6.04893L9.50176 10.9204L9.60328 12.4568L9.61178 16.2388H11.9501L11.967 12.4568L12.0766 10.9204Z" fill="#F6851B" stroke="#F6851B" stroke-width="0.0424755" stroke-linecap="round" stroke-linejoin="round"/>
</g>
<defs>
<clipPath id="clip0_2_100">
<rect width="21.5703" height="20" fill="white"/>
</clipPath>
</defs>
</svg>
